<svg width="183" height="28" viewBox="0 0 183 28" fill="none" xmlns="http://www.w3.org/2000/svg">
<path d="M131.475 18.2C129.711 14.684 129.711 10.916 131.475 7.4H130.431C128.667 10.916 128.667 14.684 130.431 18.2H131.475ZM137.67 14.036V12.044H136.002V14.036H133.818L136.602 8.6H134.826L132.03 14.036V15.572H136.002V17H137.67V15.572H138.57V14.036H137.67ZM141.067 16.856C141.463 16.46 141.463 15.812 141.067 15.416C140.671 15.02 140.023 15.02 139.627 15.416C139.231 15.812 139.231 16.46 139.627 16.856C140.023 17.252 140.671 17.252 141.067 16.856ZM147.23 8.6H145.334L142.718 12.548C142.394 13.04 142.226 13.604 142.226 14.24C142.226 15.104 142.502 15.812 143.066 16.352C143.63 16.892 144.362 17.168 145.262 17.168C146.162 17.168 146.894 16.892 147.458 16.352C148.022 15.8 148.31 15.092 148.31 14.24C148.31 13.4 148.034 12.716 147.494 12.176C146.954 11.636 146.246 11.348 145.37 11.324L147.23 8.6ZM146.666 14.24C146.666 15.068 146.066 15.608 145.262 15.608C144.458 15.608 143.87 15.068 143.87 14.24C143.87 13.412 144.458 12.884 145.262 12.884C146.066 12.884 146.666 13.424 146.666 14.24ZM157.463 7.4H156.839L152.039 18.2H152.663L157.463 7.4ZM162.939 11.876L163.083 9.644H166.671V8.6H162.075L161.763 12.956H164.139C165.159 12.956 165.891 13.544 165.891 14.516C165.891 15.488 165.171 16.064 164.115 16.064C163.191 16.064 162.519 15.632 162.291 14.816L161.343 15.356C161.739 16.52 162.831 17.156 164.115 17.156C164.919 17.156 165.591 16.916 166.155 16.448C166.719 15.98 166.995 15.332 166.995 14.516C166.995 13.688 166.719 13.052 166.167 12.584C165.627 12.116 164.955 11.876 164.163 11.876H162.939ZM168.656 17.132C169.1 17.132 169.436 16.784 169.436 16.352C169.436 15.92 169.1 15.572 168.656 15.572C168.224 15.572 167.876 15.92 167.876 16.352C167.876 16.784 168.224 17.132 168.656 17.132ZM175.927 15.968C176.491 15.176 176.779 14.12 176.779 12.8C176.779 11.48 176.491 10.424 175.927 9.632C175.363 8.84 174.559 8.444 173.539 8.444C172.519 8.444 171.715 8.84 171.151 9.632C170.587 10.424 170.299 11.48 170.299 12.8C170.299 14.12 170.587 15.176 171.151 15.968C171.715 16.76 172.519 17.156 173.539 17.156C174.559 17.156 175.363 16.76 175.927 15.968ZM171.415 12.8C171.415 10.7 172.183 9.524 173.539 9.524C174.895 9.524 175.675 10.724 175.675 12.8C175.675 14.876 174.895 16.064 173.539 16.064C172.183 16.064 171.415 14.876 171.415 12.8ZM178.661 18.2C180.425 14.684 180.425 10.916 178.661 7.4H177.617C179.381 10.916 179.381 14.684 177.617 18.2H178.661Z" fill="#636366"/>
<path fill-rule="evenodd" clip-rule="evenodd" d="M15.649 21.0114C15.5157 21.0114 15.3815 20.9806 15.2583 20.9172L10.9557 18.6972L6.65393 20.9172C6.36872 21.0631 6.02444 21.0381 5.76623 20.8514C5.50634 20.6647 5.37723 20.3489 5.43208 20.0364L6.25143 15.3464L2.77491 12.0256C2.5437 11.8047 2.46016 11.4731 2.55889 11.1697C2.65762 10.8681 2.92173 10.6472 3.24069 10.6022L8.05044 9.91224L10.2005 5.64058C10.4857 5.07391 11.4265 5.07391 11.7118 5.64058L13.8618 9.91224L18.6715 10.6022C18.9905 10.6472 19.2546 10.8681 19.3533 11.1697C19.4521 11.4731 19.3685 11.8047 19.1373 12.0256L15.6608 15.3464L16.4802 20.0364C16.535 20.3489 16.4051 20.6647 16.146 20.8514C15.9992 20.9581 15.8245 21.0114 15.649 21.0114Z" fill="#FFBB0B"/>
<mask id="mask0_504_386" style="mask-type:alpha" maskUnits="userSpaceOnUse" x="2" y="5" width="18" height="17">
<path fill-rule="evenodd" clip-rule="evenodd" d="M15.649 21.5004C15.5157 21.5004 15.3815 21.4696 15.2583 21.4063L10.9557 19.1863L6.65393 21.4063C6.36872 21.5521 6.02444 21.5271 5.76623 21.3404C5.50634 21.1538 5.37723 20.8379 5.43208 20.5254L6.25143 15.8354L2.77491 12.5146C2.5437 12.2938 2.46016 11.9621 2.55889 11.6588C2.65762 11.3571 2.92173 11.1363 3.24069 11.0913L8.05044 10.4013L10.2005 6.12959C10.4857 5.56292 11.4265 5.56292 11.7118 6.12959L13.8618 10.4013L18.6715 11.0913C18.9905 11.1363 19.2546 11.3571 19.3533 11.6588C19.4521 11.9621 19.3685 12.2938 19.1373 12.5146L15.6608 15.8354L16.4802 20.5254C16.535 20.8379 16.4051 21.1538 16.146 21.3404C15.9992 21.4471 15.8245 21.5004 15.649 21.5004Z" fill="white"/>
</mask>
<g mask="url(#mask0_504_386)">
<rect x="0.830078" y="4" width="20.2516" height="20" fill="#FFBB0B"/>
</g>
<path fill-rule="evenodd" clip-rule="evenodd" d="M39.9508 21.0114C39.8174 21.0114 39.6833 20.9806 39.5601 20.9172L35.2575 18.6972L30.9557 20.9172C30.6705 21.0631 30.3262 21.0381 30.068 20.8514C29.8081 20.6647 29.679 20.3489 29.7338 20.0364L30.5532 15.3464L27.0767 12.0256C26.8455 11.8047 26.7619 11.4731 26.8606 11.1697C26.9594 10.8681 27.2235 10.6472 27.5424 10.6022L32.3522 9.91224L34.5022 5.64058C34.7874 5.07391 35.7283 5.07391 36.0135 5.64058L38.1636 9.91224L42.9733 10.6022C43.2923 10.6472 43.5564 10.8681 43.6551 11.1697C43.7538 11.4731 43.6703 11.8047 43.4391 12.0256L39.9626 15.3464L40.7819 20.0364C40.8368 20.3489 40.7068 20.6647 40.4478 20.8514C40.3009 20.9581 40.1263 21.0114 39.9508 21.0114Z" fill="#FFBB0B"/>
<mask id="mask1_504_386" style="mask-type:alpha" maskUnits="userSpaceOnUse" x="26" y="5" width="18" height="17">
<path fill-rule="evenodd" clip-rule="evenodd" d="M39.9508 21.5004C39.8174 21.5004 39.6833 21.4696 39.5601 21.4063L35.2575 19.1863L30.9557 21.4063C30.6705 21.5521 30.3262 21.5271 30.068 21.3404C29.8081 21.1538 29.679 20.8379 29.7338 20.5254L30.5532 15.8354L27.0767 12.5146C26.8455 12.2938 26.7619 11.9621 26.8606 11.6588C26.9594 11.3571 27.2235 11.1363 27.5424 11.0913L32.3522 10.4013L34.5022 6.12959C34.7874 5.56292 35.7283 5.56292 36.0135 6.12959L38.1636 10.4013L42.9733 11.0913C43.2923 11.1363 43.5564 11.3571 43.6551 11.6588C43.7538 11.9621 43.6703 12.2938 43.4391 12.5146L39.9626 15.8354L40.7819 20.5254C40.8368 20.8379 40.7068 21.1538 40.4478 21.3404C40.3009 21.4471 40.1263 21.5004 39.9508 21.5004Z" fill="white"/>
</mask>
<g mask="url(#mask1_504_386)">
<rect x="25.1318" y="4" width="20.2516" height="20" fill="#FFBB0B"/>
</g>
<path fill-rule="evenodd" clip-rule="evenodd" d="M64.253 21.0114C64.1197 21.0114 63.9855 20.9806 63.8623 20.9172L59.5597 18.6972L55.2579 20.9172C54.9727 21.0631 54.6284 21.0381 54.3702 20.8514C54.1103 20.6647 53.9812 20.3489 54.0361 20.0364L54.8554 15.3464L51.3789 12.0256C51.1477 11.8047 51.0642 11.4731 51.1629 11.1697C51.2616 10.8681 51.5257 10.6472 51.8447 10.6022L56.6544 9.91224L58.8045 5.64058C59.0897 5.07391 60.0306 5.07391 60.3158 5.64058L62.4658 9.91224L67.2755 10.6022C67.5945 10.6472 67.8586 10.8681 67.9574 11.1697C68.0561 11.4731 67.9725 11.8047 67.7413 12.0256L64.2648 15.3464L65.0842 20.0364C65.139 20.3489 65.0091 20.6647 64.75 20.8514C64.6032 20.9581 64.4285 21.0114 64.253 21.0114Z" fill="#FFBB0B"/>
<mask id="mask2_504_386" style="mask-type:alpha" maskUnits="userSpaceOnUse" x="51" y="5" width="17" height="17">
<path fill-rule="evenodd" clip-rule="evenodd" d="M64.253 21.5004C64.1197 21.5004 63.9855 21.4696 63.8623 21.4063L59.5597 19.1863L55.2579 21.4063C54.9727 21.5521 54.6284 21.5271 54.3702 21.3404C54.1103 21.1538 53.9812 20.8379 54.0361 20.5254L54.8554 15.8354L51.3789 12.5146C51.1477 12.2938 51.0642 11.9621 51.1629 11.6588C51.2616 11.3571 51.5257 11.1363 51.8447 11.0913L56.6544 10.4013L58.8045 6.12959C59.0897 5.56292 60.0306 5.56292 60.3158 6.12959L62.4658 10.4013L67.2755 11.0913C67.5945 11.1363 67.8586 11.3571 67.9574 11.6588C68.0561 11.9621 67.9725 12.2938 67.7413 12.5146L64.2648 15.8354L65.0842 20.5254C65.139 20.8379 65.0091 21.1538 64.75 21.3404C64.6032 21.4471 64.4285 21.5004 64.253 21.5004Z" fill="white"/>
</mask>
<g mask="url(#mask2_504_386)">
<rect x="49.4341" y="4" width="20.2516" height="20" fill="#FFBB0B"/>
</g>
<path fill-rule="evenodd" clip-rule="evenodd" d="M88.5548 21.0114C88.4214 21.0114 88.2873 20.9806 88.1641 20.9172L83.8615 18.6972L79.5597 20.9172C79.2745 21.0631 78.9302 21.0381 78.672 20.8514C78.4121 20.6647 78.283 20.3489 78.3378 20.0364L79.1572 15.3464L75.6807 12.0256C75.4495 11.8047 75.3659 11.4731 75.4647 11.1697C75.5634 10.8681 75.8275 10.6472 76.1465 10.6022L80.9562 9.91224L83.1062 5.64058C83.3915 5.07391 84.3323 5.07391 84.6175 5.64058L86.7676 9.91224L91.5773 10.6022C91.8963 10.6472 92.1604 10.8681 92.2591 11.1697C92.3578 11.4731 92.2743 11.8047 92.0431 12.0256L88.5666 15.3464L89.3859 20.0364C89.4408 20.3489 89.3108 20.6647 89.0518 20.8514C88.9049 20.9581 88.7303 21.0114 88.5548 21.0114Z" fill="#FFBB0B"/>
<mask id="mask3_504_386" style="mask-type:alpha" maskUnits="userSpaceOnUse" x="75" y="5" width="18" height="17">
<path fill-rule="evenodd" clip-rule="evenodd" d="M88.5548 21.5004C88.4214 21.5004 88.2873 21.4696 88.1641 21.4063L83.8615 19.1863L79.5597 21.4063C79.2745 21.5521 78.9302 21.5271 78.672 21.3404C78.4121 21.1538 78.283 20.8379 78.3378 20.5254L79.1572 15.8354L75.6807 12.5146C75.4495 12.2938 75.3659 11.9621 75.4647 11.6588C75.5634 11.3571 75.8275 11.1363 76.1465 11.0913L80.9562 10.4013L83.1062 6.12959C83.3915 5.56292 84.3323 5.56292 84.6175 6.12959L86.7676 10.4013L91.5773 11.0913C91.8963 11.1363 92.1604 11.3571 92.2591 11.6588C92.3578 11.9621 92.2743 12.2938 92.0431 12.5146L88.5666 15.8354L89.3859 20.5254C89.4408 20.8379 89.3108 21.1538 89.0518 21.3404C88.9049 21.4471 88.7303 21.5004 88.5548 21.5004Z" fill="white"/>
</mask>
<g mask="url(#mask3_504_386)">
<rect x="73.7358" y="4" width="20.2516" height="20" fill="#FFBB0B"/>
</g>
<path fill-rule="evenodd" clip-rule="evenodd" d="M112.857 21.0114C112.723 21.0114 112.589 20.9806 112.466 20.9172L108.163 18.6972L103.861 20.9172C103.576 21.0631 103.232 21.0381 102.974 20.8514C102.714 20.6647 102.585 20.3489 102.64 20.0364L103.459 15.3464L99.9824 12.0256C99.7512 11.8047 99.6677 11.4731 99.7664 11.1697C99.8651 10.8681 100.129 10.6472 100.448 10.6022L105.258 9.91224L107.408 5.64058C107.693 5.07391 108.634 5.07391 108.919 5.64058L111.069 9.91224L115.879 10.6022C116.198 10.6472 116.462 10.8681 116.561 11.1697C116.66 11.4731 116.576 11.8047 116.345 12.0256L112.868 15.3464L113.688 20.0364C113.743 20.3489 113.613 20.6647 113.354 20.8514C113.207 20.9581 113.032 21.0114 112.857 21.0114Z" fill="#C0CCDA"/>
<mask id="mask4_504_386" style="mask-type:alpha" maskUnits="userSpaceOnUse" x="99" y="5" width="18" height="17">
<path fill-rule="evenodd" clip-rule="evenodd" d="M112.857 21.5004C112.723 21.5004 112.589 21.4696 112.466 21.4063L108.163 19.1863L103.861 21.4063C103.576 21.5521 103.232 21.5271 102.974 21.3404C102.714 21.1538 102.585 20.8379 102.64 20.5254L103.459 15.8354L99.9824 12.5146C99.7512 12.2938 99.6677 11.9621 99.7664 11.6588C99.8651 11.3571 100.129 11.1363 100.448 11.0913L105.258 10.4013L107.408 6.12959C107.693 5.56292 108.634 5.56292 108.919 6.12959L111.069 10.4013L115.879 11.0913C116.198 11.1363 116.462 11.3571 116.561 11.6588C116.66 11.9621 116.576 12.2938 116.345 12.5146L112.868 15.8354L113.688 20.5254C113.743 20.8379 113.613 21.1538 113.354 21.3404C113.207 21.4471 113.032 21.5004 112.857 21.5004Z" fill="white"/>
</mask>
<g mask="url(#mask4_504_386)">
<rect x="98.0376" y="4" width="20.2516" height="20" fill="#C0CCDA"/>
</g>
</svg>
